<svg width="64" height="64" viewBox="0 0 64 64" fill="none" xmlns="http://www.w3.org/2000/svg">
<path d="M2.83989 30.6901L19.2599 42.3201C19.5488 42.5206 19.8841 42.6442 20.234 42.6792C20.5839 42.7142 20.937 42.6594 21.2599 42.5201L58.8399 26.0001C63.0199 24.2601 63.0099 17.8701 58.7299 16.2201C58.0315 15.9208 57.2797 15.7665 56.5199 15.7665C55.7601 15.7665 55.0082 15.9208 54.3099 16.2201L47.2099 19.3501L23.8799 11.5601C23.4087 11.3976 22.8931 11.4227 22.4399 11.6301L16.9299 14.0501C16.5843 14.2031 16.2891 14.4509 16.0786 14.7648C15.868 15.0786 15.7507 15.4457 15.7403 15.8236C15.7298 16.2014 15.8266 16.5744 16.0194 16.8994C16.2123 17.2245 16.4933 17.4882 16.8299 17.6601L32.6299 25.7701L21.1599 30.8201L9.49989 25.2101C9.23797 25.0898 8.95313 25.0275 8.66489 25.0275C8.37665 25.0275 8.09181 25.0898 7.82989 25.2101L3.18989 27.2101C2.86212 27.3512 2.57805 27.5773 2.36716 27.8652C2.15626 28.153 2.02622 28.4921 1.99051 28.8471C1.9548 29.2021 2.01473 29.5603 2.16408 29.8843C2.31344 30.2084 2.54677 30.4866 2.83989 30.6901V30.6901Z" fill="#ffffff" id="id_101"></path>
<path d="M60 48.54H4C3.46957 48.54 2.96086 48.7508 2.58579 49.1258C2.21071 49.5009 2 50.0096 2 50.54C2 51.0705 2.21071 51.5792 2.58579 51.9543C2.96086 52.3293 3.46957 52.54 4 52.54H60C60.5304 52.54 61.0391 52.3293 61.4142 51.9543C61.7893 51.5792 62 51.0705 62 50.54C62 50.0096 61.7893 49.5009 61.4142 49.1258C61.0391 48.7508 60.5304 48.54 60 48.54Z" fill="#333333" id="id_102"></path>
</svg>