<svg version="1.1" id="Capa_1" xmlns="http://www.w3.org/2000/svg" xmlns:xlink="http://www.w3.org/1999/xlink" x="0px" y="0px" viewBox="0 0 512.001 512.001" style="enable-background:new 0 0 512.001 512.001;" xml:space="preserve">
<g>
<g>
<path d="M117.04,166.001c-40.804,0-74,33.431-74,74.522c0,38.851,60.295,96.353,67.17,102.782c1.922,1.797,4.376,2.696,6.83,2.696
			s4.908-0.898,6.83-2.696c6.875-6.429,67.17-63.931,67.17-102.782C191.04,199.431,157.844,166.001,117.04,166.001z M117.04,322.083
			c-23.263-23.239-54-60.901-54-81.56c0-30.064,24.224-54.522,54-54.522s54,24.458,54,54.522
			C171.04,261.183,140.303,298.845,117.04,322.083z" id="id_101" style="fill: rgb(255, 255, 255);"></path>
</g>
</g>
<g>
<g>
<path d="M117.04,202.527c-20.953,0-37.999,17.018-37.999,37.935c0,20.918,17.046,37.936,37.999,37.936
			c20.954,0,38.001-17.018,38.001-37.936C155.041,219.545,137.994,202.527,117.04,202.527z M117.04,258.397
			c-9.924,0-17.999-8.046-17.999-17.936c0-9.889,8.074-17.935,17.999-17.935c9.926,0,18.001,8.045,18.001,17.935
			C135.041,250.352,126.966,258.397,117.04,258.397z" id="id_102" style="fill: rgb(255, 255, 255);"></path>
</g>
</g>
<g>
<g>
<path d="M384.002,36.527c-20.953,0-37.999,17.018-37.999,37.935c0,20.918,17.046,37.936,37.999,37.936
			c20.954,0,38.001-17.018,38.001-37.936C422.003,53.545,404.955,36.527,384.002,36.527z M384.002,92.397
			c-9.925,0-17.999-8.046-17.999-17.936c0-9.889,8.074-17.935,17.999-17.935c9.926,0,18.001,8.045,18.001,17.935
			C402.003,84.352,393.928,92.397,384.002,92.397z" id="id_103" style="fill: rgb(255, 255, 255);"></path>
</g>
</g>
<g>
<g>
<path d="M506.745,1.198c-3.238-1.746-7.173-1.572-10.244,0.452l-50.055,32.963C433.301,13.828,410.232,0,384.001,0
			c-40.804,0-74,33.43-74,74.522c0,38.851,60.295,96.354,67.17,102.782c1.922,1.797,4.376,2.696,6.83,2.696s4.908-0.898,6.83-2.696
			c6.875-6.429,67.17-63.931,67.17-102.782c0-7.472-1.11-14.686-3.152-21.497l37.152-24.465v177.123l-75.021-12.767
			c-10.711-1.823-21.614,1.152-29.916,8.16s-13.063,17.258-13.063,28.122c0,9.265-7.538,16.803-16.803,16.803h-20.499
			c-22.029,0-39.951-17.922-39.951-39.951c0-12.439-6.208-23.94-16.607-30.767l-11.642-7.643
			c-4.617-3.031-10.817-1.745-13.848,2.872s-1.745,10.816,2.872,13.848l11.642,7.643c4.748,3.117,7.583,8.368,7.583,14.047
			c0,33.057,26.894,59.951,59.951,59.951h20.499c20.293,0,36.803-16.51,36.803-36.803c0-4.96,2.174-9.64,5.964-12.84
			c3.791-3.2,8.773-4.558,13.659-3.726l78.377,13.338v100.781l-61.715,17.138c-5.321,1.478-8.438,6.99-6.959,12.311
			c1.229,4.427,5.249,7.327,9.63,7.327c0.885,0,1.786-0.119,2.681-0.367l56.363-15.652v41.104l-154,101.415L185.719,389.743
			l10.517-35.055c2.15-7.165,6.832-13.277,13.186-17.213c0.281-0.174,0.564-0.344,0.856-0.511c7.089-4.08,15.339-5.154,23.235-3.024
			l23.544,6.353c-0.656,3.982-1.014,8.064-1.014,12.231c0,14.719,8.656,32.114,19.781,48.395c0.487,1.275,1.236,2.473,2.264,3.501
			c0.159,0.159,0.329,0.302,0.496,0.449c17.897,25.048,40.57,46.642,44.628,50.437c1.922,1.797,4.376,2.696,6.83,2.696
			s4.908-0.898,6.83-2.696c6.875-6.429,67.17-63.931,67.17-102.782c0-41.092-33.196-74.522-74-74.522
			c-29.683,0-55.325,17.7-67.106,43.163l-24.215-6.534c-13.056-3.523-26.701-1.747-38.417,4.997
			c-0.479,0.275-0.952,0.558-1.419,0.847c-10.508,6.51-18.253,16.62-21.808,28.467l-11.612,38.706l-62.426,41.11v-34.961
			c0-12.986-6.697-24.645-17.914-31.188c-11.216-6.542-24.662-6.633-35.965-0.241l-29.159,16.489V184.999
			c0.376-0.182,0.75-0.376,1.109-0.609l42.652-27.673c11.212-7.274,17.905-19.597,17.905-32.961V83.001
			c0-0.072-0.009-0.142-0.011-0.214l92.345-60.813l94.836,62.453c4.614,3.038,10.814,1.761,13.852-2.852
			c3.038-4.613,1.761-10.814-2.852-13.852L179.501,1.649c-3.338-2.198-7.662-2.198-11,0l-164,108c-2.809,1.85-4.5,4.988-4.5,8.352
			v278.166c0,0.007,0,0.013,0,0.02v105.814c0,3.678,2.019,7.059,5.256,8.803c3.238,1.745,7.171,1.571,10.244-0.452l83.114-54.733
			c0.009-0.006,75.386-49.645,75.386-49.645l158.5,104.378c1.669,1.099,3.584,1.648,5.5,1.648c1.916,0,3.831-0.549,5.5-1.648
			l164-108c2.809-1.85,4.5-4.988,4.5-8.352V10C512.001,6.323,509.982,2.943,506.745,1.198z M384.002,156.083
			c-23.263-23.239-54-60.901-54-81.56c0-30.063,24.224-54.522,54-54.522s54,24.458,54,54.522
			C438.002,95.183,407.264,132.845,384.002,156.083z M374.717,321.932c5.882,8.729,9.326,19.261,9.326,30.592
			c0,20.659-30.738,58.321-54,81.559c-10.133-10.123-21.684-22.983-31.495-35.982l12.693-12.693
			c5.549,3.169,11.964,4.99,18.802,4.99c20.954,0,38.001-17.018,38.001-37.936c0-6.849-1.837-13.274-5.031-18.826L374.717,321.932z
			 M312.395,355.969c-0.227-1.135-0.351-2.306-0.351-3.507c0-9.889,8.074-17.935,17.999-17.935c1.182,0,2.336,0.122,3.455,0.339
			L312.395,355.969z M347.694,348.956c0.226,1.135,0.35,2.307,0.35,3.507c0,9.89-8.075,17.936-18.001,17.936
			c-1.181,0-2.334-0.122-3.453-0.339L347.694,348.956z M330.043,298.001c11.377,0,21.937,3.58,30.651,9.669l-11.848,11.848
			c-5.549-3.169-11.966-4.99-18.804-4.99c-20.953,0-37.999,17.018-37.999,37.935c0,6.849,1.837,13.275,5.031,18.827l-10.046,10.046
			c-6.649-10.893-10.987-21.052-10.987-28.812C276.043,322.459,300.267,298.001,330.043,298.001z M20.001,123.388l41.667-27.438
			v27.806c0,6.562-3.286,12.612-8.791,16.183l-32.876,21.329V123.388z M83.041,441.927l-63.04,41.514v-81.607l39.006-22.058
			c5.042-2.852,11.04-2.812,16.043,0.107c5.004,2.918,7.991,8.119,7.991,13.912V441.927z" id="id_104" style="fill: rgb(255, 255, 255);"></path>
</g>
</g>
<g>
<g>
<path d="M240.28,149.365c-3.904-3.905-10.236-3.905-14.142,0l-0.166,0.166c-3.905,3.905-3.905,10.237,0,14.143
			c1.953,1.953,4.512,2.929,7.071,2.929s5.119-0.976,7.071-2.929l0.166-0.166C244.185,159.604,244.185,153.271,240.28,149.365z" id="id_105" style="fill: rgb(255, 255, 255);"></path>
</g>
</g>
<g>
<g>
<path d="M202.996,124.641l-11.982-7.865c-21.48-14.1-49.332-12.713-69.304,3.452c-4.292,3.475-4.956,9.771-1.481,14.064
			c3.474,4.292,9.77,4.956,14.064,1.481c13.183-10.671,31.567-11.586,45.746-2.278l11.982,7.865
			c1.691,1.112,3.595,1.642,5.478,1.642c3.256,0,6.449-1.588,8.369-4.513C208.899,133.871,207.613,127.672,202.996,124.641z" id="id_106" style="fill: rgb(255, 255, 255);"></path>
</g>
</g>
<g>
</g>
<g>
</g>
<g>
</g>
<g>
</g>
<g>
</g>
<g>
</g>
<g>
</g>
<g>
</g>
<g>
</g>
<g>
</g>
<g>
</g>
<g>
</g>
<g>
</g>
<g>
</g>
<g>
</g>
</svg>